<svg width="72" height="73" viewBox="0 0 72 73" fill="none" xmlns="http://www.w3.org/2000/svg">
<path d="M44.9516 36.2306C44.9516 56.2403 40.9265 72.4613 35.9613 72.4613C30.9962 72.4613 26.9711 56.2403 26.9711 36.2306C26.9711 16.221 30.9962 0 35.9613 0C40.9265 0 44.9516 16.221 44.9516 36.2306Z" fill="white"/>
<path d="M35.9609 45.2883C16.1003 45.2883 -2.17034e-07 41.233 0 36.2306C2.17034e-07 31.2282 16.1003 27.173 35.9609 27.173C55.8216 27.173 71.9219 31.2282 71.9219 36.2306C71.9219 41.2331 55.8216 45.2883 35.9609 45.2883Z" fill="white"/>
<path d="M42.3181 42.6353C28.2744 56.7842 14.0437 65.3867 10.5328 61.8495C7.02188 58.3122 15.5603 43.9747 29.6039 29.8258C43.6476 15.6768 57.8783 7.07436 61.3892 10.6116C64.9001 14.1488 56.3617 28.4863 42.3181 42.6353Z" fill="white"/>
<path d="M29.6045 42.6354C15.5609 28.4865 7.02247 14.149 10.5334 10.6118C14.0443 7.07454 28.275 15.677 42.3186 29.826C56.3623 43.9749 64.9007 58.3124 61.3898 61.8496C57.8789 65.3869 43.6482 56.7844 29.6045 42.6354Z" fill="white"/>
</svg>
